<svg width="35" height="35" viewBox="0 0 35 35" xmlns="http://www.w3.org/2000/svg">
<path d="M3.84798 11.6622L2.05404 10.1904C1.07943 9.39114 1.07943 8.09017 2.05404 7.29042C3.02864 6.49094 4.61458 6.49094 5.58919 7.29042L7.50456 8.86162C9.5026 7.72007 11.7803 6.92993 14.1667 6.55075V4.51172H12.5C12.0397 4.51172 11.6667 4.2057 11.6667 3.82812V2.05078C11.6667 0.919914 12.7881 0 14.1667 0H20.8333C22.2119 0 23.3333 0.919914 23.3333 2.05078V3.82812C23.3333 4.2057 22.9603 4.51172 22.5 4.51172H20.8333V6.55075C23.2194 6.92966 25.4974 7.72007 27.4954 8.86162L29.4108 7.29042C30.3851 6.49094 31.971 6.49094 32.946 7.29042C33.9206 8.0899 33.9206 9.39087 32.946 10.1904L31.152 11.6622C33.6387 14.203 35 17.3678 35 20.6445C35 28.5601 27.1494 35 17.5 35C7.85059 35 0 28.5601 0 20.6445C0 17.3678 1.36133 14.203 3.84798 11.6622ZM4.41081 8.25706C4.08561 7.99057 3.55729 7.99084 3.23242 8.25706C2.90788 8.52356 2.90788 8.95721 3.23242 9.22371L4.95443 10.636C5.34245 10.3092 5.74935 9.99756 6.17253 9.70249L4.41081 8.25706ZM21.6667 2.05078C21.6667 1.67374 21.293 1.36719 20.8333 1.36719H14.1667C13.707 1.36719 13.3333 1.67374 13.3333 2.05078V3.14453H21.6667V2.05078ZM15.8333 4.51172V6.35368C16.9378 6.26877 18.0618 6.26877 19.1667 6.35368V4.51172H15.8333ZM31.7676 8.25706C31.4427 7.99084 30.9141 7.99057 30.5892 8.25706L28.8275 9.70249C29.2507 9.99756 29.6576 10.3092 30.0456 10.636L31.7676 9.22371C32.0921 8.95721 32.0921 8.52356 31.7676 8.25706ZM17.5 33.6328C26.2305 33.6328 33.3333 27.8062 33.3333 20.6445C33.3333 17.4853 31.9352 14.4415 29.3968 12.0732C28.6976 11.4208 27.9173 10.8248 27.0778 10.3009C24.974 8.98766 22.4837 8.12328 19.8763 7.80098C19.096 7.70512 18.2965 7.65625 17.5 7.65625C16.7034 7.65625 15.904 7.70512 15.124 7.80098C12.5163 8.12328 10.026 8.98766 7.92188 10.3009C7.08268 10.8248 6.30241 11.4208 5.60319 12.0732C3.06478 14.4415 1.66666 17.4853 1.66666 20.6445C1.66666 27.8062 8.76953 33.6328 17.5 33.6328Z" fill="#00B2FF"/>
<path d="M17.5 22.6953C16.1214 22.6953 15 21.7754 15 20.6445C15 19.7535 15.6966 18.9935 16.6667 18.7112V13.8086C16.6667 13.431 17.0397 13.125 17.5 13.125C17.9603 13.125 18.3334 13.431 18.3334 13.8086V18.7112C19.3034 18.9935 20 19.7535 20 20.6445C20 21.7754 18.8786 22.6953 17.5 22.6953ZM17.5 19.9609C17.0404 19.9609 16.6667 20.2675 16.6667 20.6445C16.6667 21.0216 17.0404 21.3281 17.5 21.3281C17.9597 21.3281 18.3334 21.0216 18.3334 20.6445C18.3334 20.2675 17.9597 19.9609 17.5 19.9609Z" fill="#00B2FF"/>
<path d="M8.62272 13.6525C8.63574 13.6399 8.64876 13.6274 8.66341 13.6156C8.67904 13.6026 8.69564 13.5908 8.71224 13.5791C10.181 12.387 11.9954 11.505 13.9645 11.0281C14.4062 10.9213 14.8695 11.128 14.9997 11.4901C15.1299 11.8522 14.8779 12.2324 14.4365 12.3392C12.9775 12.6928 11.6165 13.3038 10.4564 14.1195L11.0186 14.5807C11.3438 14.8477 11.3438 15.2806 11.0186 15.5476C10.8558 15.6811 10.6426 15.7479 10.429 15.7479C10.2158 15.7479 10.0026 15.6811 9.83984 15.5476L9.27637 15.0854C7.76855 16.5236 6.87305 18.294 6.69857 20.1808H7.5C7.96029 20.1808 8.33333 20.4871 8.33333 20.8644C8.33333 21.242 7.96029 21.548 7.5 21.548H6.69857C6.87305 23.4351 7.76855 25.2052 9.27637 26.6434L9.83984 26.1812C10.1654 25.9145 10.693 25.9145 11.0186 26.1812C11.3441 26.4482 11.3441 26.8811 11.0186 27.1481L10.4551 27.6104C12.2083 28.8472 14.3665 29.5818 16.6667 29.7252V29.0675C16.6667 28.69 17.0397 28.3839 17.5 28.3839C17.9603 28.3839 18.3333 28.69 18.3333 29.0675V29.725C20.6335 29.5818 22.7917 28.8472 24.5449 27.6104L23.9814 27.1481C23.6559 26.8811 23.6559 26.4482 23.9814 26.1812C24.307 25.9145 24.8346 25.9145 25.1602 26.1812L25.7236 26.6434C27.2314 25.2052 28.127 23.4348 28.3014 21.548H27.5C27.0397 21.548 26.6667 21.242 26.6667 20.8644C26.6667 20.4868 27.0397 20.1808 27.5 20.1808H28.3014C28.127 18.294 27.2314 16.5236 25.7236 15.0854L25.1602 15.5476C24.9974 15.6811 24.7842 15.7479 24.571 15.7479C24.3574 15.7479 24.1442 15.6811 23.9814 15.5476C23.6562 15.2806 23.6562 14.8477 23.9814 14.5807L24.5436 14.1195C23.3835 13.3035 22.0225 12.6928 20.5635 12.3392C20.1221 12.2324 19.8701 11.8522 20.0003 11.4901C20.1305 11.128 20.5934 10.9216 21.0355 11.0281C23.0042 11.5048 24.818 12.3865 26.2865 13.578C26.3037 13.59 26.3206 13.6023 26.3366 13.6154C26.3509 13.6271 26.3636 13.6394 26.3766 13.6517C28.7135 15.5866 30 18.1458 30 20.8644C30 23.5828 28.7135 26.1417 26.3773 28.0763C26.3643 28.0889 26.3512 28.1014 26.3366 28.1132C26.3223 28.1252 26.3073 28.1356 26.2923 28.1463C23.9336 30.063 20.8141 31.1183 17.5 31.1183C14.1862 31.1183 11.0667 30.0633 8.70833 28.1468C8.69303 28.1359 8.67773 28.1252 8.66341 28.1132C8.64909 28.1017 8.63639 28.0891 8.62337 28.0771C6.28646 26.1422 5 23.583 5 20.8644C5 18.1461 6.28646 15.5871 8.62272 13.6525Z" fill="#00B2FF"/>
<path d="M17.5 11.7578C17.04 11.7578 16.6667 11.4515 16.6667 11.0742C16.6667 10.6969 17.04 10.3906 17.5 10.3906C17.96 10.3906 18.3333 10.6969 18.3333 11.0742C18.3333 11.4515 17.96 11.7578 17.5 11.7578Z" fill="#00B2FF"/>
</svg>
